<?xml version="1.0" encoding="utf-8"?>
<!-- Generator: Adobe Illustrator 17.0.0, SVG Export Plug-In . SVG Version: 6.00 Build 0)  -->
<!DOCTYPE svg PUBLIC "-//W3C//DTD SVG 1.1//EN" "http://www.w3.org/Graphics/SVG/1.1/DTD/svg11.dtd">
<svg version="1.1" id="Layer_1" xmlns="http://www.w3.org/2000/svg" xmlns:xlink="http://www.w3.org/1999/xlink" x="0px" y="0px"
   width="144px" height="227px" viewBox="0 0 144 227" enable-background="new 0 0 144 227" xml:space="preserve">
<path fill="#820BFA" d="M138.165,80.165C138.165,116.431,72.5,214.5,72.5,214.5S6.835,116.431,6.835,80.165S36.234,14.5,72.5,14.5
  S138.165,43.899,138.165,80.165z"/>
<rect x="-4" y="74.5" display="none" opacity="0.4" fill="#820BFA" width="153" height="156.5"/>
<circle fill="#FFFFFF" cx="71.499" cy="79.45" r="56.08"/>
<g>
  <path fill="#820BFA" d="M79.296,67.525c4.473,0,8.436,0,12.348,0c1.745-8.031-4.593-10.107-9.289-13.145
    c4.814-8.086,2.618-14.607-1.912-18.466c-4.162-3.545-11.097-3.788-15.451-0.317c-5.4,4.305-6.884,10.933-2.344,18.856
    c-4.859,2.993-11.124,5.212-9.114,13.36c4.128,0,8.097,0,12.052,0c0.082,0.749,0.205,1.174,0.163,1.583
    c-0.922,8.922-3.539,17.282-8.241,24.962c-1.831,2.99-3.284,5.929-7.353,7.004c-8.34,2.203-12.027,11.755-9.853,19.267
    c21.598,0,43.181,0,64.719,0c1.396-9.269-2.084-17.42-12.281-20.191c-0.988-0.269-2.075-1.09-2.606-1.964
    c-2.165-3.562-4.311-7.159-6.132-10.904C81.019,81.444,79.503,74.92,79.296,67.525z"/>
  <path fill="#820BFA" d="M79.296,67.525c0.208,7.396,1.723,13.92,4.703,20.046c1.821,3.745,3.967,7.341,6.132,10.904
    c0.532,0.874,1.618,1.696,2.606,1.964c10.197,2.771,13.677,10.922,12.281,20.191c-21.538,0-43.122,0-64.719,0
    c-2.174-7.512,1.513-17.065,9.853-19.267c4.069-1.075,5.523-4.014,7.353-7.004c4.702-7.68,7.32-16.041,8.241-24.962
    c0.042-0.409-0.08-0.834-0.163-1.583c-3.955,0-7.924,0-12.052,0c-2.009-8.149,4.256-10.367,9.114-13.36
    c-4.54-7.924-3.056-14.551,2.344-18.856c4.354-3.471,11.289-3.228,15.451,0.317c4.53,3.858,6.726,10.379,1.912,18.466
    c4.696,3.038,11.034,5.114,9.289,13.145C87.731,67.525,83.769,67.525,79.296,67.525z"/>
</g>
</svg>